# xmcd
#
# Track frame offsets:
#	150
#	15767
#	30335
#	44043
#	59209
#	72527
#	89315
#	101859
#	113566
#	126374
#	141607
#	156006
#	168789
#	182276
#	199816
#	213494
#	225695
#	236573
#	247039
#	261160
#	274737
#	288234
#	301151
#	311853
#
# Disc length: 4444 seconds
#
# Revision: 1
# Processed by: cddbd v1.5.2PL0 Copyright (c) Steve Scherf et al.
# Submitted via: audiograbber 1.83.01
#
DISCID=60115a18
DTITLE=Western Heart - Western Heart 074
DYEAR=2007
DGENRE=Country
TTITLE0=Wal Mart Girls  - Danny Griego
TTITLE1=I Can´t Leave Her Alone  - Hal Willis
TTITLE2=Tennessee Moon  - Erin Hay
TTITLE3=Honey´s Little Hummer  - David Cline
TTITLE4=Run That By Me One More Time  - Joni Campretta
TTITLE5=Ghost Riders In The Sky  - Shady Creek Outlaws
TTITLE6=Honey, I Dare You  - Chreyl K Warner
TTITLE7=Ashes To Gold  - Tommy The Uk Cowboy
TTITLE8=Quintessential Cowboy - Joanne and Haley Myrol
TTITLE9=Jimmy Straught  - Richard Draime
TTITLE10=The Dating Game  - Christi Owens
TTITLE11=This Ring - Billy Mccoy
TTITLE12=Country Man  - Lee Shepherd
TTITLE13=White Roses  - Jose Daniel
TTITLE14=I Don´t Know A Thing About Love  - Jim Russ
TTITLE15=A Single Red Rose - Myrl Blaine
TTITLE16=Hey Porter  - Bengt Pedersen
TTITLE17=Woopy Do  - Richard Draime
TTITLE18=You And Autom In Tennessee  - Jamie Cutler Harper
TTITLE19=They´re Only People - Richard Draime
TTITLE20=God Love You So Do I  - Paul Mateki
TTITLE21=Holy Hands  - Irma Young
TTITLE22=Ther´s A Peace From The Lord - Jerry Yates
TTITLE23=Angels That Fall  - Britt
EXTD=
EXTT0=
EXTT1=
EXTT2=
EXTT3=
EXTT4=
EXTT5=
EXTT6=
EXTT7=
EXTT8=
EXTT9=
EXTT10=
EXTT11=
EXTT12=
EXTT13=
EXTT14=
EXTT15=
EXTT16=
EXTT17=
EXTT18=
EXTT19=
EXTT20=
EXTT21=
EXTT22=
EXTT23=
PLAYORDER=
